<svg width="839" height="597" viewBox="0 0 839 597" fill="none" xmlns="http://www.w3.org/2000/svg">
<g id="seaplaneSVG">
<g id="sunset">
<rect id="PinkBckground" width="839" height="596.62" fill="url(#paint0_radial)"/>
<path id="sun3" d="M419.5 121.771C245.87 121.771 92.4899 151.192 0.29126 209.969V494.95H839V209.969C746.833 151.067 593.313 121.771 419.5 121.771Z" fill="#EAB1D1"/>
<path id="sun2" d="M419.5 214.993C196.827 214.993 16.314 319.857 16.314 449.213C16.314 505.034 49.9287 556.294 106.04 596.535H732.96C789.071 556.294 822.686 505.034 822.686 449.213C822.686 319.857 642.174 214.993 419.5 214.993Z" fill="#F4BD6B"/>
<ellipse id="sun1" cx="430.57" cy="494.659" rx="115.945" ry="63.5074" fill="#F2D97E"/>
</g>
<g id="seaplane">
<path id="Vector 9" d="M653.992 302.668C655.769 302.476 649.234 287.732 639.663 278.103H644.166C652.483 288.54 655.762 293.933 658.905 302.668H653.992Z" fill="#75A9D0"/>
<path id="Vector 15" d="M665.503 214.912L629.836 243.874L634.402 244.754L669.8 215.741L665.503 214.912Z" fill="#75A9D0"/>
<path id="Vector 11" d="M597.091 300.621C598.717 300.445 592.738 286.93 583.981 278.103H588.102C595.71 287.671 598.71 292.614 601.586 300.621H597.091Z" fill="#75A9D0"/>
<path id="Ellipse 9" d="M695.344 255.695C695.344 270.167 678.227 281.788 614.688 281.788C498.502 274.76 428.092 277.928 499.64 255.585C571.188 233.242 570.928 218.186 622.467 218.737C685.444 219.484 694.851 241.877 695.344 255.695Z" fill="#5D89AA"/>
<path id="Vector 5" d="M486.129 231.02C496.98 234.131 479.728 266.815 498.003 270.324C513.015 273.207 469.752 277.125 461.155 264.797C451.738 251.295 469.51 226.255 486.129 231.02Z" fill="#5D89AA"/>
<path id="Vector 17" d="M479.155 231.481C478.976 232.247 464.67 264.698 472.335 269.157C475.697 271.112 472.057 274.766 465.021 263.271C457.985 251.777 480.709 224.85 479.155 231.481Z" fill="#8AB9DF"/>
<path id="Vector 7" d="M546.314 296.944C645.991 296.701 674.826 302.294 707.233 307.343C707.233 307.343 709.669 315.745 702.421 320.941C692.171 328.29 677.571 326.312 663.394 325.741C614.449 323.766 546.314 296.944 546.314 296.944Z" fill="#557F9E"/>
<path id="Vector 6" d="M517.655 305.542C617.331 305.299 646.166 310.892 678.573 315.941C678.573 315.941 681.01 324.343 673.762 329.539C663.512 336.888 648.911 334.91 634.735 334.339C585.79 332.364 517.655 305.542 517.655 305.542Z" fill="#75A9D0"/>
<path id="Vector 16" d="M517.966 305.881C617.141 316.344 640.65 323.15 672.755 327.862C672.755 327.862 674.951 330.266 667.599 330.829C657.202 331.624 642.73 329.577 628.641 327.934C579.999 322.261 517.966 305.881 517.966 305.881Z" fill="#BBDDF8"/>
<path id="Ellipse 10" d="M695.486 255.227C695.572 256.757 678.526 258.945 614.997 262.505C498.786 268.27 428.406 272.55 499.811 266.179C571.216 259.808 573.054 258.056 624.589 255.227C687.561 251.778 694.912 253.793 695.486 255.227Z" fill="#8AB9DF"/>
<path id="Vector 8" d="M463.202 191.754C471.547 185.227 478.414 183.238 495.955 183.727C531.239 182.026 604.043 191.754 604.043 191.754C604.043 191.754 687.985 203.292 720.319 212.395C711.516 219.198 702.827 221.206 681.833 222.142L463.202 191.754Z" fill="#5D89AA"/>
<path id="Vector 18" d="M474.559 185.938C482.648 185.462 486.819 184.12 503.532 185.939C537.205 189.065 606.414 198.141 606.414 198.141C606.414 198.141 686.205 208.67 716.845 213.65C708.313 214.136 699.989 213.682 679.955 211.807L474.559 185.938Z" fill="#7CA7C7"/>
<path id="Vector 10" d="M626.152 278.103H631.065C624.292 289.675 621.122 296.502 618.373 310.038H613.459C616.239 297.211 618.737 290.173 626.152 278.103Z" fill="#75A9D0"/>
<path id="Vector 12" d="M571.746 278.103H576.202C570.06 288.637 567.185 294.851 564.691 307.172H560.235C562.756 295.497 565.021 289.09 571.746 278.103Z" fill="#75A9D0"/>
<path id="Vector 14" d="M665.251 225.493C671.968 227.351 674.9 229.161 680.195 232.248C680.195 232.248 671.289 233.517 665.251 234.705C636.923 240.28 605.434 237.691 582.753 234.705C574.827 233.661 567.809 231.02 567.809 231.02C569.714 229.231 577.453 226.192 578.863 226.721C580.273 227.25 622.187 232.247 648.26 228.359C653.517 227.575 665.251 225.493 665.251 225.493Z" fill="#F2D97E"/>
<line id="Line 5" y1="-2.5" x2="11.7882" y2="-2.5" transform="matrix(-0.347315 0.937748 -0.937749 -0.347313 591.76 226.926)" stroke="#5D89AA" stroke-width="5"/>
<path id="Vector 13" d="M576.709 201.709L622.191 258.689L617.737 259.875L572.517 202.826L576.709 201.709Z" fill="#75A9D0"/>
<line id="Line 6" x1="638.877" y1="227.562" x2="637.649" y2="241.072" stroke="#5D89AA" stroke-width="5"/>
<line id="Line 7" y1="-2.5" x2="15.5364" y2="-2.5" transform="matrix(0.316229 0.948683 -0.948684 0.316227 655.63 223.241)" stroke="#5D89AA" stroke-width="5"/>
</g>
<g id="sea">
<rect id="Rectangle 7" y="494.659" width="839" height="101.961" fill="url(#paint1_linear)"/>
<line id="Line 8" x1="79.2388" y1="531.778" x2="205.089" y2="531.778" stroke="white" stroke-opacity="0.16" stroke-width="5"/>
<line id="Line 9" x1="88.561" y1="543.431" x2="235.386" y2="543.431" stroke="white" stroke-opacity="0.16" stroke-width="5"/>
<line id="Line 10" x1="673.531" y1="507.307" x2="804.624" y2="507.307" stroke="white" stroke-opacity="0.16" stroke-width="5"/>
<line id="Line 12" x1="660.712" y1="513.134" x2="791.806" y2="513.134" stroke="white" stroke-opacity="0.16" stroke-width="5"/>
<line id="Line 11" x1="601.866" y1="555.666" x2="653.138" y2="555.666" stroke="white" stroke-opacity="0.16" stroke-width="5"/>
</g>
</g>
<defs>
<radialGradient id="paint0_radial" cx="0" cy="0" r="1" gradientUnits="userSpaceOnUse" gradientTransform="translate(419.5 298.31) rotate(90) scale(298.31 419.5)">
<stop stop-color="#ECBDD4"/>
<stop offset="1" stop-color="#ECBDD4"/>
</radialGradient>
<linearGradient id="paint1_linear" x1="419.5" y1="494.659" x2="419.5" y2="596.62" gradientUnits="userSpaceOnUse">
<stop stop-color="#5EABF2"/>
<stop offset="1" stop-color="#2E85D7"/>
</linearGradient>
</defs>
</svg>
