<svg width="1440" height="1024" viewBox="0 0 1440 1024" fill="none" xmlns="http://www.w3.org/2000/svg">

    <style>

      /*animating the SVGs */
       #cactus1, #cactus2, #cactus3 {
         animation: animateX 15s infinite linear;
       }

       #starnight > path{
         animation: starColor 1s step-start infinite;
       }

       @keyframes animateX {
         0%{
           transform: rotateX(0deg);
         }
         50%{
           transform: rotateX(10deg);
         }
       }


       @keyframes starColor {
         0%,20% {opacity: 100%}
         21%, 50% {opacity: 50%}
         51%, 70% {opacity: 100%}
         71%, 100% {opacity: 70%}
       }

    </style>

    <g id="desertSVG">

        <rect id="backGround" y="-3" width="1441" height="1025" fill="#7D87D9"/>

        <g id="sand">
            <path id="Vector 28" d="M1440 501.145V636H0V440.5C142.5 422.471 340.547 413.792 360.99 422.471C360.99 422.471 841.037 512.868 879.768 512.868C918.5 512.868 1039.46 497.899 1112.5 501.145C1186.85 504.45 1245.05 461.021 1319 472.051C1372.18 479.982 1412.03 518.653 1440 501.145Z" fill="url(#paint0_linear)"/>
            <path id="Vector 24" d="M1441 587.683V1024H0V516.619C304.878 529.074 614.566 463.13 750.302 465.041C886.037 466.951 1210.09 589.468 1441 587.683Z" fill="url(#paint1_linear)"/>
        </g>

        <g id="cactus3">
            <ellipse id="Ellipse 13" cx="609" cy="543.5" rx="28" ry="21.5" fill="#95AE4F"/>
            <g id="Group 21">
            <path id="Vector 73" d="M624.907 533.271C624.306 532.291 623.073 531.159 623.016 530.073C622.964 529.1 628.423 528.772 630.715 528C628.652 530.361 625.417 534.103 624.907 533.271Z" fill="#CF643B"/>
            <path id="Vector 74" d="M626.778 545.546C626.593 544.412 625.88 542.897 626.238 541.871C626.559 540.951 631.736 542.712 634.149 542.866C631.346 544.27 626.935 546.51 626.778 545.546Z" fill="#CF643B"/>
            <path id="Vector 75" d="M623.411 557.026C623.682 555.91 623.616 554.237 624.345 553.431C625 552.709 629.081 556.349 631.244 557.431C628.114 557.632 623.18 557.975 623.411 557.026Z" fill="#CF643B"/>
            <path id="Vector 79" d="M598.946 535.936C599.268 534.75 600.194 533.216 599.926 532.084C599.686 531.07 593.982 532.373 591.396 532.27C594.225 534.075 598.672 536.945 598.946 535.936Z" fill="#CF643B"/>
            <path id="Vector 82" d="M601.312 526.975C602.139 526.065 603.662 525.122 603.939 523.992C604.187 522.98 598.515 521.542 596.26 520.273C597.957 523.168 600.608 527.748 601.312 526.975Z" fill="#CF643B"/>
            <path id="Vector 80" d="M598.887 548.774C599.085 547.561 599.849 545.94 599.466 544.842C599.122 543.857 593.582 545.742 591 545.906C594 547.409 598.719 549.806 598.887 548.774Z" fill="#CF643B"/>
            <path id="Vector 81" d="M602.491 561.058C602.2 559.864 602.271 558.074 601.49 557.212C600.79 556.439 596.423 560.334 594.109 561.492C597.458 561.706 602.737 562.074 602.491 561.058Z" fill="#CF643B"/>
            <path id="Vector 77" d="M585.281 543.546C585.464 542.412 586.168 540.897 585.815 539.871C585.498 538.951 580.384 540.712 578 540.866C580.77 542.27 585.125 544.51 585.281 543.546Z" fill="#CF643B"/>
            <path id="Vector 78" d="M588.607 555.026C588.339 553.91 588.404 552.237 587.683 551.431C587.037 550.709 583.006 554.349 580.87 555.431C583.961 555.632 588.835 555.975 588.607 555.026Z" fill="#CF643B"/>
            </g>
            <ellipse id="Ellipse 17" rx="27" ry="2" transform="matrix(1 0 0 -1 587 565)" fill="black" fill-opacity="0.5"/>
        </g>

        <g id="cactus2">
            <ellipse id="Ellipse 12" cx="1324" cy="844" rx="70" ry="54" fill="#95AE4F"/>
            <g id="Group 23">
            <path id="Vector 73_2" d="M1369.43 818.758C1367.83 816.139 1364.53 813.112 1364.38 810.209C1364.24 807.606 1378.84 806.727 1384.97 804.664C1379.45 810.979 1370.8 820.985 1369.43 818.758Z" fill="#CF643B"/>
            <path id="Vector 74_2" d="M1374.44 851.584C1373.94 848.552 1372.03 844.501 1372.99 841.756C1373.85 839.296 1387.69 844.006 1394.15 844.416C1386.65 848.173 1374.86 854.161 1374.44 851.584Z" fill="#CF643B"/>
            <path id="Vector 75_2" d="M1365.43 882.283C1366.16 879.298 1365.98 874.825 1367.93 872.67C1369.68 870.739 1380.59 880.473 1386.38 883.366C1378.01 883.903 1364.82 884.821 1365.43 882.283Z" fill="#CF643B"/>
            <path id="Vector 79_2" d="M1300.01 825.886C1300.87 822.714 1303.35 818.613 1302.63 815.586C1301.99 812.873 1286.74 816.359 1279.82 816.083C1287.39 820.908 1299.28 828.583 1300.01 825.886Z" fill="#CF643B"/>
            <path id="Vector 82_2" d="M1306.34 801.923C1308.55 799.491 1312.62 796.969 1313.36 793.947C1314.03 791.24 1298.86 787.395 1292.83 784C1297.37 791.742 1304.46 803.99 1306.34 801.923Z" fill="#CF643B"/>
            <path id="Vector 80_2" d="M1299.85 860.217C1300.38 856.972 1302.43 852.638 1301.4 849.701C1300.48 847.068 1285.67 852.109 1278.76 852.547C1286.79 856.567 1299.4 862.975 1299.85 860.217Z" fill="#CF643B"/>
            <path id="Vector 81_2" d="M1309.49 893.066C1308.71 889.871 1308.9 885.085 1306.81 882.779C1304.94 880.713 1293.27 891.129 1287.08 894.224C1296.03 894.799 1310.15 895.781 1309.49 893.066Z" fill="#CF643B"/>
            <path id="Vector 77_2" d="M1263.47 846.236C1263.96 843.203 1265.84 839.153 1264.9 836.408C1264.05 833.947 1250.37 838.658 1244 839.068C1251.41 842.824 1263.05 848.813 1263.47 846.236Z" fill="#CF643B"/>
            <path id="Vector 78_2" d="M1272.36 876.935C1271.65 873.95 1271.82 869.476 1269.89 867.322C1268.17 865.39 1257.39 875.125 1251.67 878.018C1259.94 878.555 1272.97 879.473 1272.36 876.935Z" fill="#CF643B"/>
            <path id="Vector 48" d="M1329.69 797.426C1329.76 794.597 1345.26 795.932 1345.75 797.542C1346.24 799.153 1341.34 804.992 1336.9 806.518C1332.24 803.127 1329.59 801.676 1329.69 797.426Z" fill="#CF643B"/>
            <path id="Vector 49" d="M1326.26 826.902C1326.33 824.074 1341.83 825.408 1342.32 827.019C1342.81 828.63 1337.91 834.469 1333.48 835.995C1328.81 832.604 1326.16 831.152 1326.26 826.902Z" fill="#CF643B"/>
            <path id="Vector 50" d="M1325.58 859.121C1325.64 856.292 1341.14 857.627 1341.64 859.238C1342.13 860.848 1337.23 866.687 1332.79 868.213C1328.13 864.822 1325.48 863.371 1325.58 859.121Z" fill="#CF643B"/>
            <path id="Vector 51" d="M1326.95 887.224C1327.02 884.396 1342.52 885.737 1343.01 887.348C1343.5 888.959 1338.6 894.796 1334.16 896.32C1329.5 892.927 1326.85 891.474 1326.95 887.224Z" fill="#CF643B"/>
            </g>
            <ellipse id="Ellipse 16" cx="1257" cy="897.5" rx="78" ry="5.5" fill="black" fill-opacity="0.5"/>
        </g>

        <g id="cactus4">
            <ellipse id="Ellipse 14" cx="1262" cy="880" rx="78" ry="60" fill="#7D9340"/>
            <g id="Group 22">
            <path id="Vector 73_3" d="M1304.43 854.758C1302.83 852.139 1299.53 849.112 1299.38 846.209C1299.24 843.606 1313.84 842.727 1319.97 840.664C1314.45 846.979 1305.8 856.985 1304.43 854.758Z" fill="#CF643B"/>
            <path id="Vector 74_3" d="M1309.44 887.584C1308.94 884.552 1307.03 880.501 1307.99 877.756C1308.85 875.296 1322.69 880.006 1329.15 880.416C1321.65 884.173 1309.86 890.161 1309.44 887.584Z" fill="#CF643B"/>
            <path id="Vector 75_3" d="M1300.43 918.283C1301.16 915.298 1300.98 910.825 1302.93 908.67C1304.68 906.739 1315.59 916.473 1321.38 919.366C1313.01 919.903 1299.82 920.821 1300.43 918.283Z" fill="#CF643B"/>
            <path id="Vector 79_3" d="M1235.01 861.886C1235.87 858.714 1238.35 854.613 1237.63 851.586C1236.99 848.873 1221.74 852.359 1214.82 852.083C1222.39 856.908 1234.28 864.583 1235.01 861.886Z" fill="#CF643B"/>
            <path id="Vector 82_3" d="M1241.34 837.923C1243.55 835.491 1247.62 832.969 1248.36 829.947C1249.03 827.24 1233.86 823.395 1227.83 820C1232.37 827.742 1239.46 839.99 1241.34 837.923Z" fill="#CF643B"/>
            <path id="Vector 80_3" d="M1234.85 896.217C1235.38 892.972 1237.43 888.638 1236.4 885.701C1235.48 883.068 1220.67 888.109 1213.76 888.547C1221.79 892.567 1234.4 898.975 1234.85 896.217Z" fill="#CF643B"/>
            <path id="Vector 81_3" d="M1244.49 929.066C1243.71 925.871 1243.9 921.085 1241.81 918.779C1239.94 916.713 1228.27 927.129 1222.08 930.224C1231.03 930.799 1245.15 931.781 1244.49 929.066Z" fill="#CF643B"/>
            <path id="Vector 77_3" d="M1198.47 882.236C1198.96 879.203 1200.84 875.153 1199.9 872.408C1199.05 869.947 1185.37 874.658 1179 875.068C1186.41 878.824 1198.05 884.813 1198.47 882.236Z" fill="#CF643B"/>
            <path id="Vector 78_3" d="M1207.36 912.935C1206.65 909.95 1206.82 905.476 1204.89 903.322C1203.17 901.39 1192.39 911.125 1186.67 914.018C1194.94 914.555 1207.97 915.473 1207.36 912.935Z" fill="#CF643B"/>
            <path id="Vector 48_2" d="M1270.27 827.388C1270.35 824.193 1287.86 825.701 1288.41 827.52C1288.97 829.34 1283.43 835.936 1278.42 837.66C1273.15 833.829 1270.16 832.189 1270.27 827.388Z" fill="#CF643B"/>
            <path id="Vector 49_2" d="M1266.4 860.686C1266.48 857.49 1283.99 858.998 1284.54 860.818C1285.1 862.637 1279.56 869.233 1274.55 870.957C1269.28 867.127 1266.29 865.487 1266.4 860.686Z" fill="#CF643B"/>
            <path id="Vector 50_2" d="M1265.63 897.081C1265.7 893.886 1283.21 895.393 1283.77 897.213C1284.32 899.032 1278.79 905.628 1273.78 907.352C1268.51 903.522 1265.51 901.882 1265.63 897.081Z" fill="#CF643B"/>
            <path id="Vector 51_2" d="M1267.18 928.827C1267.25 925.632 1284.76 927.147 1285.32 928.967C1285.87 930.787 1280.33 937.381 1275.32 939.102C1270.05 935.269 1267.06 933.628 1267.18 928.827Z" fill="#CF643B"/>
            </g>
            <ellipse id="Ellipse 15" cx="1200" cy="939.5" rx="78" ry="5.5" fill="black" fill-opacity="0.5"/>
        </g>

        <g id="clouds">
            <path id="cloud 11" d="M264.061 83.8701C293.714 90.2956 289.009 90.3502 306.251 93.6365C323.494 96.9228 320.785 91.0586 363.632 95.2314C424.063 101.117 469.837 127.487 431.512 140.096C406.517 148.319 399.938 142.939 384.168 149.94C370.903 155.829 381.193 162.507 357.34 167.842C315.375 177.228 239.889 159.877 239.889 159.877C239.889 159.877 223.866 169.884 200.204 171.84C165.967 174.671 115.258 150.62 115.258 150.62C115.258 150.62 26.6357 155.229 14.4366 136.02C3.41791 118.67 40.0329 124.351 43.653 112.771C46.2725 104.391 40.7068 105.016 46.3395 93.653C52.1679 81.8947 121.249 82.3851 157.687 86.5054C173.662 77.0583 230.836 76.6704 264.061 83.8701Z" fill="#CEDBDE"/>
            <path id="cloud 12" d="M1253.43 227.758C1272.5 233.251 1269.43 233.469 1280.54 236.206C1291.64 238.943 1290.09 233.088 1317.82 235.839C1356.94 239.718 1385.76 264.884 1360.36 279.001C1343.79 288.207 1339.7 282.977 1329.18 290.624C1320.33 297.057 1326.78 303.475 1311.06 309.712C1283.41 320.685 1234.91 305.695 1234.91 305.695C1234.91 305.695 1224.12 316.401 1208.65 319.204C1186.26 323.26 1154.14 300.617 1154.14 300.617C1154.14 300.617 1096.29 308.358 1089.05 289.295C1082.52 272.076 1106.14 276.572 1108.92 264.7C1110.93 256.109 1107.29 256.936 1111.37 245.214C1115.6 233.085 1160.54 231.193 1184.1 234.112C1194.85 223.976 1232.07 221.605 1253.43 227.758Z" fill="#CEDBDE"/>
            <path id="cloud 13" d="M1145.32 222.613C1168.93 226.606 1165.28 227.277 1178.97 229.052C1192.66 230.828 1190.01 224.053 1223.65 223.615C1271.1 222.996 1309.07 249.142 1280.49 269.382C1261.85 282.583 1256.25 276.894 1244.66 287.424C1234.91 296.282 1243.51 303.07 1225.49 312.616C1193.79 329.41 1133.6 318.037 1133.6 318.037C1133.6 318.037 1122.09 332.251 1103.91 337.668C1077.6 345.507 1036.01 322.811 1036.01 322.811C1036.01 322.811 967.658 339.8 956.411 318.037C946.253 298.38 975.197 300.574 976.934 286.043C978.191 275.528 973.929 277.003 977.248 262.478C980.683 247.447 1034.34 239.164 1063.01 239.485C1074.53 225.957 1118.87 218.138 1145.32 222.613Z" fill="#CEDBDE"/>
            <path id="cloud 14" d="M494.733 96.8307C517.662 107.154 513.79 106.713 527.221 112.214C540.652 117.716 539.7 110.892 573.939 120.113C622.23 133.117 654.06 167.385 619.893 177.347C597.61 183.844 593.38 177.147 578.928 183.266C566.771 188.414 573.764 196.952 553.044 200.353C516.59 206.335 458.436 178.948 458.436 178.948C458.436 178.948 443.125 188.39 423.293 188.046C394.599 187.548 358.218 155.337 358.218 155.337C358.218 155.337 284.531 151.02 278.687 128.314C273.409 107.805 302.21 118.041 307.689 105.523C311.653 96.4642 306.953 96.5678 314.035 84.5062C321.364 72.0254 377.919 79.9413 406.913 88.4197C422.063 79.5967 469.041 85.2635 494.733 96.8307Z" fill="#CEDBDE"/>
        </g>

        <g id="cactus1">
            <g id="Group 28">
            <path id="Vector 25" d="M448.228 893.462L448.07 880.14C448.07 880.14 -110.091 871.056 -73.2359 899.64C-36.9591 927.775 448.228 893.462 448.228 893.462Z" fill="black" fill-opacity="0.5"/>
            <path id="Vector 26" d="M355 896H448.5C448.5 896 558.658 337.986 355 374.5C154.538 410.441 355 896 355 896Z" fill="#7D9340"/>
            <g id="Group 26">
            <path id="Subtract" fill-rule="evenodd" clip-rule="evenodd" d="M349.758 375.562C158.08 419.02 355 896 355 896H413.362C382.22 815.041 268.433 497.452 349.758 375.562Z" fill="#526228"/>
            <g id="Group 25">
            <path id="Vector 71" d="M312.88 416.727C310.052 420.376 307.549 426.62 303.55 428.378C299.965 429.952 290.973 409.903 284.817 402.385C296.624 406.786 315.284 413.626 312.88 416.727Z" fill="#CF643B"/>
            <path id="Vector 61" d="M285.227 466.563C285.481 462.443 308.001 465.248 308.63 467.623C309.259 469.999 301.791 478.239 295.238 480.217C288.627 475.016 284.844 472.753 285.227 466.563Z" fill="#CF643B"/>
            <path id="Vector 62" d="M281.227 510.563C281.481 506.443 304.001 509.248 304.63 511.623C305.259 513.999 297.791 522.239 291.238 524.217C284.627 519.016 280.844 516.753 281.227 510.563Z" fill="#CF643B"/>
            <path id="Vector 63" d="M281.228 557.56C281.485 553.44 304.003 556.254 304.631 558.63C305.259 561.006 297.788 569.243 291.233 571.219C284.625 566.014 280.843 563.75 281.228 557.56Z" fill="#CF643B"/>
            <path id="Vector 64" d="M291.336 647.78C290.784 643.69 313.418 642.058 314.497 644.265C315.577 646.473 309.856 656.009 303.812 659.225C296.316 655.41 292.165 653.926 291.336 647.78Z" fill="#CF643B"/>
            <path id="Vector 65" d="M300.336 693.78C299.784 689.69 322.418 688.058 323.497 690.265C324.577 692.473 318.856 702.009 312.812 705.225C305.316 701.41 301.165 699.926 300.336 693.78Z" fill="#CF643B"/>
            <path id="Vector 66" d="M313.336 739.313C312.784 735.223 335.418 733.591 336.497 735.799C337.577 738.006 331.856 747.542 325.812 750.758C318.316 746.943 314.165 745.459 313.336 739.313Z" fill="#CF643B"/>
            <path id="Vector 67" d="M326.982 782.047C326.665 778.626 344.563 776.598 345.35 778.422C346.137 780.246 341.349 788.426 336.489 791.304C330.688 788.315 327.457 787.188 326.982 782.047Z" fill="#CF643B"/>
            <path id="Vector 68" d="M340.778 825.967C340.357 822.853 357.587 821.611 358.408 823.292C359.229 824.972 354.875 832.231 350.275 834.679C344.569 831.774 341.409 830.645 340.778 825.967Z" fill="#CF643B"/>
            <path id="Vector 69" d="M356.778 864.967C356.357 861.853 373.587 860.611 374.408 862.292C375.229 863.972 370.875 871.231 366.275 873.679C360.569 870.774 357.409 869.645 356.778 864.967Z" fill="#CF643B"/>
            </g>
            </g>
            <g id="Group 17">
            <path id="Vector 70" d="M380 397.134C375.564 398.413 361.766 401.979 357.5 401.039C353.677 400.197 362.015 378.702 361.478 369C368.417 379.518 383.771 396.048 380 397.134Z" fill="#CF643B"/>
            <path id="Vector 48_3" d="M351.062 433.832C351.16 429.706 373.77 431.653 374.489 434.003C375.207 436.353 368.059 444.871 361.585 447.097C354.782 442.15 350.915 440.032 351.062 433.832Z" fill="#CF643B"/>
            <path id="Vector 49_3" d="M346.062 476.832C346.16 472.706 368.77 474.653 369.489 477.003C370.207 479.353 363.059 487.871 356.585 490.097C349.782 485.15 345.915 483.032 346.062 476.832Z" fill="#CF643B"/>
            <path id="Vector 50_3" d="M345.062 523.832C345.16 519.706 367.77 521.653 368.489 524.003C369.207 526.353 362.059 534.871 355.585 537.097C348.782 532.15 344.915 530.032 345.062 523.832Z" fill="#CF643B"/>
            <path id="Vector 51_3" d="M347.065 564.829C347.164 560.703 369.773 562.66 370.491 565.01C371.208 567.36 364.056 575.875 357.581 578.098C350.78 573.149 346.915 571.029 347.065 564.829Z" fill="#CF643B"/>
            <path id="Vector 52" d="M351.065 609.829C351.164 605.703 373.773 607.66 374.491 610.01C375.208 612.36 368.056 620.875 361.581 623.098C354.78 618.149 350.915 616.029 351.065 609.829Z" fill="#CF643B"/>
            <path id="Vector 53" d="M360.065 652.829C360.164 648.703 382.773 650.66 383.491 653.01C384.208 655.36 377.056 663.875 370.581 666.098C363.78 661.149 359.915 659.029 360.065 652.829Z" fill="#CF643B"/>
            <path id="Vector 54" d="M371.802 696.371C371.893 692.419 392.564 694.293 393.221 696.543C393.877 698.794 387.337 706.948 381.417 709.077C375.199 704.337 371.665 702.308 371.802 696.371Z" fill="#CF643B"/>
            <path id="Vector 55" d="M376.927 740.021C376.674 736.077 397.422 735.968 398.272 738.146C399.121 740.325 393.319 749.07 387.609 751.756C381.004 747.63 377.308 745.947 376.927 740.021Z" fill="#CF643B"/>
            <path id="Vector 56" d="M385.5 782.76C385.239 778.877 406.634 778.77 407.51 780.914C408.386 783.059 402.403 791.669 396.515 794.313C389.704 790.251 385.893 788.594 385.5 782.76Z" fill="#CF643B"/>
            <path id="Vector 57" d="M397.5 821.255C397.239 817.372 418.634 817.265 419.51 819.409C420.386 821.554 414.403 830.164 408.515 832.808C401.704 828.746 397.893 827.089 397.5 821.255Z" fill="#CF643B"/>
            <path id="Vector 58" d="M410.5 860.346C410.239 856.463 431.634 856.356 432.51 858.5C433.386 860.645 427.403 869.255 421.515 871.899C414.704 867.837 410.893 866.18 410.5 860.346Z" fill="#CF643B"/>
            </g>
            <g id="Group 24">
            <path id="Vector 29" d="M427.501 446C425.118 442.046 420.197 437.46 420.001 433.096C419.825 429.185 441.768 428.03 451.001 425C442.637 434.425 429.527 449.361 427.501 446Z" fill="#CF643B"/>
            <path id="Vector 72" d="M410.348 412.063C407.438 408.478 401.927 404.621 401.126 400.326C400.409 396.477 421.978 392.284 430.7 388C423.728 398.496 412.821 415.109 410.348 412.063Z" fill="#CF643B"/>
            <path id="Vector 30" d="M430.072 488.518C428.82 484.074 425.288 478.35 426.253 474.089C427.119 470.271 448.585 474.963 458.291 474.484C447.731 481.36 431.136 492.295 430.072 488.518Z" fill="#CF643B"/>
            <path id="Vector 31" d="M431.686 531.971C430.665 527.469 427.432 521.57 428.615 517.365C429.676 513.596 450.872 519.387 460.59 519.408C449.69 525.732 432.554 535.798 431.686 531.971Z" fill="#CF643B"/>
            <path id="Vector 32" d="M431.294 575.539C431.237 570.923 429.309 564.478 431.346 560.613C433.171 557.15 452.688 567.246 462.186 569.299C450.205 573.203 431.343 579.463 431.294 575.539Z" fill="#CF643B"/>
            <path id="Vector 33" d="M435.14 623.282C434.405 618.725 431.551 612.633 432.998 608.511C434.294 604.817 455.083 611.936 464.779 612.571C453.502 618.193 435.764 627.156 435.14 623.282Z" fill="#CF643B"/>
            <path id="Vector 34" d="M436.073 671.25C435.462 666.674 432.775 660.508 434.333 656.426C435.73 652.769 456.317 660.449 465.993 661.347C454.567 666.661 436.593 675.14 436.073 671.25Z" fill="#CF643B"/>
            <path id="Vector 35" d="M435.7 714.891C435.665 710.274 433.769 703.82 435.825 699.966C437.667 696.511 457.134 706.703 466.622 708.802C454.622 712.648 435.729 718.815 435.7 714.891Z" fill="#CF643B"/>
            <path id="Vector 36" d="M436.84 761.592C436.096 757.036 433.23 750.95 434.668 746.825C435.958 743.129 456.76 750.206 466.458 750.822C455.192 756.467 437.472 765.465 436.84 761.592Z" fill="#CF643B"/>
            <path id="Vector 37" d="M437.198 812.181C436.5 807.617 433.696 801.503 435.176 797.393C436.503 793.709 457.233 800.998 466.924 801.712C455.601 807.242 437.791 816.06 437.198 812.181Z" fill="#CF643B"/>
            </g>
            </g>
            <g id="Group 29">
            <path id="Vector 27" d="M424.934 594.918L428.575 557.974C474.21 544.067 429.521 437.697 474.825 422.419C529.298 404.048 514.844 575.787 462.115 600.131C439.351 610.64 424.934 594.918 424.934 594.918Z" fill="#A5C05A"/>
            <g id="Group 20">
            <path id="Vector 44" d="M495.373 446.505C491.76 442.456 484.299 437.76 484.002 433.291C483.735 429.285 517.002 428.103 531 425C518.32 434.652 498.443 449.947 495.373 446.505Z" fill="#CF643B"/>
            <path id="Vector 45" d="M495.373 493.528C491.76 489.663 484.299 485.18 484.002 480.914C483.735 477.09 517.002 475.962 531 473C518.32 482.213 498.443 496.813 495.373 493.528Z" fill="#CF643B"/>
            <path id="Vector 46" d="M495.373 541.505C491.76 537.456 484.299 532.76 484.002 528.291C483.735 524.285 517.002 523.103 531 520C518.32 529.652 498.443 544.947 495.373 541.505Z" fill="#CF643B"/>
            </g>
            </g>
            <g id="Group 27">
            <path id="Vector 26_2" d="M315.5 625.5L307 589C307 589 287.319 591.103 275 589C217.548 579.194 260.696 469.202 203.5 458C134.728 444.531 171.212 614.423 238.5 634C267.548 642.452 315.5 625.5 315.5 625.5Z" fill="#A5C05A"/>
            <g id="Group 19">
            <path id="Vector 39" d="M180.837 487.595C184.066 484.282 190.733 480.44 190.999 476.783C191.237 473.506 161.508 472.539 149 470C160.331 477.897 178.093 490.411 180.837 487.595Z" fill="#CF643B"/>
            <path id="Vector 40" d="M188.972 529.425C191.375 525.473 197.011 520.234 196.45 516.611C195.948 513.364 166.759 519.086 154 519.416C166.813 524.571 186.928 532.785 188.972 529.425Z" fill="#CF643B"/>
            <path id="Vector 41" d="M198.282 568.86C200.019 564.573 204.739 558.495 203.602 555.01C202.584 551.886 174.696 562.228 162.156 564.606C175.632 567.634 196.806 572.505 198.282 568.86Z" fill="#CF643B"/>
            <path id="Vector 42" d="M219.712 607.815C220.783 603.315 224.533 596.595 222.885 593.321C221.407 590.386 195.396 604.812 183.358 609.053C197.135 610.015 218.802 611.64 219.712 607.815Z" fill="#CF643B"/>
            <path id="Vector 72_2" d="M223.405 492.55C220.1 488.869 213.274 484.6 213.001 480.537C212.758 476.896 243.194 475.821 256 473C244.399 481.774 226.214 495.679 223.405 492.55Z" fill="#CF643B"/>
            <path id="Vector 73_4" d="M230.837 532.848C227.765 528.971 221.215 524.289 221.194 520.217C221.175 516.568 251.619 517.37 264.575 515.343C252.456 523.386 233.449 536.144 230.837 532.848Z" fill="#CF643B"/>
            <path id="Vector 74_4" d="M242.288 579.489C238.672 576.113 231.497 572.46 230.868 568.437C230.305 564.831 260.529 561.084 273.038 557.148C262.253 566.908 245.361 582.358 242.288 579.489Z" fill="#CF643B"/>
            </g>
            </g>
        </g>
    </g>

    <defs>
        <linearGradient id="paint0_linear" x1="355.543" y1="263.595" x2="355.543" y2="1072.58" gradientUnits="userSpaceOnUse">
            <stop stop-color="#E0605A"/>
            <stop offset="1" stop-color="#960700"/>
        </linearGradient>

        <linearGradient id="paint1_linear" x1="720.5" y1="453.579" x2="720.5" y2="1024" gradientUnits="userSpaceOnUse">
            <stop stop-color="#E0605A"/>
            <stop offset="1" stop-color="#960700"/>
        </linearGradient>
    </defs>

</svg>
