<svg width="72" height="100" viewBox="0 0 72 100" fill="none" xmlns="http://www.w3.org/2000/svg">
<path d="M27.2948 89.7257C27.4798 88.7798 27.7296 87.8433 27.9878 87H44.0777C44.3153 87.7997 44.5436 88.6835 44.7147 89.5804C45.0028 91.0912 45.0647 92.3196 44.9371 93.1456C44.9025 93.3694 44.8641 93.512 44.8348 93.5965C44.3118 93.8759 43.3282 94.2361 41.8209 94.5237C40.2218 94.8287 38.3246 94.9973 36.3439 95C32.3854 95.0054 28.9348 94.3546 27.1108 93.4946C27.0956 93.4329 27.0787 93.352 27.0619 93.2481C26.9366 92.4736 26.9942 91.2632 27.2948 89.7257ZM44.7878 93.7004C44.7871 93.6991 44.7928 93.6868 44.8069 93.6674C44.7956 93.692 44.7885 93.7017 44.7878 93.7004ZM27.1657 93.6638C27.1653 93.6644 27.1614 93.6575 27.1549 93.641C27.1627 93.6549 27.166 93.6631 27.1657 93.6638Z" stroke="black" stroke-width="10"/>
<path d="M43.3504 68.9212H28.5073C26.1238 58.9224 12.1996 54.6845 8.01274 45.2293C4.16588 36.542 3.82916 30.2373 8.01274 21.6899C13.0922 11.3124 21.4643 5.87894 33.5378 5.08642C46.9989 4.20284 57.6238 10.1194 63.2861 21.6899C67.469 30.2375 67.1022 36.5299 63.2861 45.2293C59.1939 54.558 45.6896 59.0679 43.3504 68.9212Z" stroke="black" stroke-width="10"/>
</svg>
