<svg width="839" height="597" viewBox="0 0 839 597" fill="none" xmlns="http://www.w3.org/2000/svg">
  <style>

     #hotairBalloon{
       animation: animateY 5s infinite linear;
       transform-origin: bottom;
       fill: black;
     }

     #sky > path{
       animation: skyColor 7s linear infinite;
     }

     @keyframes animateY {
       0%{
         transform: rotateY(-10deg);
       }
       30%{
         transform: rotateY(20deg);
       }
       60%{
         transform: rotateY(30deg);
       }
       100%{
         transform: rotateY(-10deg);
       }
     }

     @keyframes skyColor {
       0%,20% {fill: white}
       21%, 50% {fill: #F5C5DF}
       51%, 70% {fill: #FBA2D2}
       71%, 100% {fill: #F5C5DF}
     }


  </style>


  <g id="hotAirBalloonSVG">

    <path id="blueBckground" d="M0 0H839V596.622H0V0Z" fill="#B4E4FF"/>

      <g id="hotairBalloon">

      <g id="balloon">
      <path id="Vector 2" d="M489.607 370.885H451.649C445.553 345.315 409.945 334.478 399.238 310.298C389.4 288.082 388.539 271.959 399.238 250.101C412.227 223.562 433.637 209.667 464.513 207.64C498.937 205.381 526.108 220.511 540.588 250.101C551.285 271.959 550.347 288.051 540.588 310.298C530.123 334.154 495.589 345.687 489.607 370.885Z" fill="#6396D8"/>
      <path id="Vector 4" d="M482.636 370.885H458.103C454.164 345.315 431.15 334.478 424.23 310.298C417.872 288.082 417.316 271.959 424.23 250.101C432.625 223.562 446.463 209.667 466.418 207.64C488.666 205.381 506.227 220.511 515.585 250.101C522.499 271.959 521.893 288.051 515.585 310.298C508.822 334.154 486.502 345.687 482.636 370.885Z" fill="#FECD71"/>
      <path id="Vector 3" d="M477.872 370.885H465.911C463.991 345.315 452.77 334.478 449.396 310.298C446.296 288.082 446.025 271.959 449.396 250.101C453.489 223.562 460.236 209.667 469.965 207.64C480.813 205.381 489.374 220.511 493.937 250.101C497.308 271.959 497.012 288.051 493.937 310.298C490.64 334.154 479.757 345.687 477.872 370.885Z" fill="#D98594"/>
      </g>

      <path id="basket" d="M451 387.42H488.796C488.796 387.42 497.595 407.208 488.796 412.46C480.945 417.147 460.185 417.224 451 412.46C441.873 407.726 451 387.42 451 387.42Z" fill="#88432D"/>

      <g id="Group 1">
      <line id="Line 1" y1="-0.5" x2="16.5432" y2="-0.5" transform="matrix(-0.0301586 0.999545 -0.999634 -0.0270456 451.504 370.885)" stroke="#88432D"/>
      <line id="Line 2" y1="-0.5" x2="16.5662" y2="-0.5" transform="matrix(-0.0602351 0.998184 -0.998539 -0.0540319 489.301 370.885)" stroke="#88432D"/>
      <line id="Line 3" x1="462.083" y1="370.885" x2="462.083" y2="387.42" stroke="#88432D"/>
      <line id="Line 4" y1="-0.5" x2="16.5432" y2="-0.5" transform="matrix(-0.0301586 0.999545 -0.999634 -0.0270456 476.702 370.885)" stroke="#88432D"/>
      </g>
    </g>

    <g id="grass">
      <rect id="Rectangle 4" y="513.305" width="839" height="83.3174" fill="#3F8966"/>
      <g id="grassStraws">
      <g id="grass 6">
      <path d="M740.999 555.141H740.722C740.867 555.297 740.956 555.288 740.999 555.141H742.527C743.134 554.562 736.787 534.939 736.467 534.93C736.174 534.922 741.466 553.51 740.999 555.141Z" fill="#5FC695"/>
      <path d="M748.071 539.421C748.526 537.04 744.619 555.141 744.619 555.141H746.395C745.883 555.137 747.617 541.802 748.071 539.421Z" fill="#5FC695"/>
      <path d="M746.395 529.118C745.784 527.374 741.748 554.081 743.172 555.141H744.203C743.543 553.962 747.007 530.862 746.395 529.118Z" fill="#5FC695"/>
      </g>
      <g id="grass 5">
      <path d="M726.3 555.144H726.925C726.598 555.488 726.396 555.469 726.3 555.144H722.847C721.476 553.866 735.816 510.592 736.539 510.572C737.201 510.554 725.244 551.548 726.3 555.144Z" fill="#5FC695"/>
      <path d="M710.32 520.477C709.292 515.225 718.12 555.144 718.12 555.144H714.108C715.263 555.135 711.347 525.727 710.32 520.477Z" fill="#5FC695"/>
      <path d="M714.107 497.754C715.489 493.907 724.608 552.807 721.39 555.144H719.06C720.551 552.545 712.726 501.601 714.107 497.754Z" fill="#5FC695"/>
      </g>
      <g id="grass 4">
      <path d="M154.902 555.113H155.262C155.073 555.308 154.957 555.297 154.902 555.113H152.915C152.126 554.392 160.377 529.973 160.793 529.962C161.174 529.952 154.295 553.084 154.902 555.113Z" fill="#5FC695"/>
      <path d="M145.708 535.551C145.116 532.588 150.196 555.113 150.196 555.113H147.887C148.552 555.108 146.299 538.514 145.708 535.551Z" fill="#5FC695"/>
      <path d="M147.887 522.729C148.681 520.558 153.928 553.794 152.077 555.113H150.736C151.594 553.646 147.092 524.899 147.887 522.729Z" fill="#5FC695"/>
      </g>
      <g id="grass 3">
      <path d="M177.941 554.361H178.494C178.204 554.788 178.025 554.764 177.941 554.361H174.884C173.67 552.777 186.364 499.143 187.003 499.118C187.59 499.095 177.006 549.904 177.941 554.361Z" fill="#5FC695"/>
      <path d="M163.795 511.394C162.885 504.885 170.7 554.361 170.7 554.361H167.148C168.171 554.35 164.705 517.901 163.795 511.394Z" fill="#5FC695"/>
      <path d="M167.147 483.231C168.37 478.464 176.442 551.464 173.594 554.361H171.531C172.852 551.139 165.925 487.999 167.147 483.231Z" fill="#5FC695"/>
      </g>
      <g id="grass 2">
      <path d="M198.472 554.523H198.804C198.63 554.728 198.523 554.716 198.472 554.523H196.637C195.909 553.763 203.526 528.036 203.909 528.024C204.261 528.013 197.911 552.385 198.472 554.523Z" fill="#5FC695"/>
      <path d="M189.984 533.913C189.439 530.791 194.127 554.523 194.127 554.523H191.996C192.61 554.518 190.53 537.034 189.984 533.913Z" fill="#5FC695"/>
      <path d="M191.996 520.404C192.73 518.117 197.573 553.133 195.864 554.523H194.626C195.418 552.978 191.262 522.691 191.996 520.404Z" fill="#5FC695"/>
      </g>
      <g id="grass 1">
      <path d="M317.172 553.391H317.407C317.284 553.55 317.208 553.541 317.172 553.391H315.873C315.357 552.798 320.752 532.74 321.024 532.731C321.273 532.722 316.775 551.724 317.172 553.391Z" fill="#5FC695"/>
      <path d="M311.16 537.322C310.774 534.888 314.095 553.391 314.095 553.391H312.586C313.02 553.387 311.547 539.755 311.16 537.322Z" fill="#5FC695"/>
      <path d="M312.585 526.789C313.105 525.006 316.536 552.307 315.325 553.391H314.448C315.009 552.186 312.065 528.572 312.585 526.789Z" fill="#5FC695"/>
      </g>
      </g>
    </g>

    <g id="sky">
        <path id="cloud 4" d="M339.747 106.798C346.719 112.07 351.052 119.169 351.052 119.169C351.052 119.169 364.453 114.7 375.665 118.334C391.479 123.461 400.288 150.022 386.619 159.505C377.705 165.69 360.995 160.351 360.995 160.351C360.995 160.351 363.645 176.557 355.698 180.502C341.716 187.441 319.779 168.965 319.779 168.965C319.779 168.965 315.09 177.299 307.949 178.612C297.617 180.512 286.523 160.636 286.523 160.636C286.523 160.636 250.621 166.8 251.441 151.722C252.183 138.103 274.492 132.231 274.492 132.231C274.492 132.231 267.562 124.671 271.689 115.866C275.959 106.755 287.721 108.398 297.129 111.935C305.711 115.161 309.239 119.187 309.239 119.187C309.239 119.187 308.935 113.736 314.676 107.486C321.307 100.267 331.935 100.89 339.747 106.798Z" fill="white"/>
        <path id="cloud 3" d="M125.949 158.971C132.574 162.203 133.757 166.066 133.757 166.066C133.757 166.066 138.725 159.829 148.614 161.114C162.561 162.926 170.447 177.56 160.591 187.231C154.163 193.538 150.07 192.576 150.07 192.576C150.07 192.576 154.593 203.897 148.614 208.252C138.095 215.915 125.949 208.252 125.949 208.252C125.949 208.252 116.607 219.54 110.882 221.651C102.599 224.707 86.8541 210.288 86.8541 210.288C86.8541 210.288 61.3896 220.55 59.6886 208.252C58.1523 197.144 70.8431 191.972 70.8431 191.972C70.8431 191.972 68.8063 184.033 70.8431 176.314C72.9507 168.327 79.9643 165.522 88.1522 167.814C95.4352 169.853 101.553 171.019 101.553 171.019C101.553 171.019 101.449 169.111 105.231 163.218C109.598 156.411 118.526 155.35 125.949 158.971Z" fill="white"/>
        <path id="cloud 2" d="M746.013 101.217C752.274 107.1 755.391 112.683 755.391 112.683C755.391 112.683 759.429 109.354 769.917 114.733C784.709 122.319 789.735 141.448 775.746 146.618C766.622 149.989 758.455 147.294 758.455 147.294C758.455 147.294 755.727 156.982 747.729 158.665C733.658 161.626 718 146.043 718 146.043C718 146.043 710.816 151.096 703.823 150.728C693.704 150.196 686.68 132.157 686.68 132.157C686.68 132.157 661.254 129.118 663.349 116.581C665.242 105.256 681.468 106.559 681.468 106.559C681.468 106.559 679.244 99.3796 683.981 92.8112C688.884 86.0146 696.742 88.1175 705.5 93.0408C713.489 97.5318 715.622 102.823 715.622 102.823C715.622 102.823 715.727 100.702 721.799 96.62C728.813 91.9052 738.998 94.6249 746.013 101.217Z" fill="white"/>
        <path id="cloud 5" d="M225.338 245.227C231.131 247.957 234.626 251.197 234.626 251.197C234.626 251.197 236.722 247.908 245.396 249.308C257.629 251.282 265.595 263.687 256.867 270.572C251.174 275.062 244.763 275.031 244.763 275.031C244.763 275.031 245.059 282.527 239.776 285.561C230.481 290.899 215.794 283.454 215.794 283.454C215.794 283.454 211.864 288.69 206.821 290.039C199.524 291.99 190.393 280.817 190.393 280.817C190.393 280.817 171.667 284.515 170.267 275.144C169.003 266.679 180.807 263.869 180.807 263.869C180.807 263.869 177.577 259.29 179.424 253.543C181.336 247.596 187.391 247.279 194.734 248.754C201.431 250.099 204.161 253.36 204.161 253.36C204.161 253.36 203.748 251.832 207.113 247.54C211 242.583 218.847 242.167 225.338 245.227Z" fill="white"/>
        <path id="cloud 1" d="M615.498 139.633C619.99 143.794 622.519 149.007 622.519 149.007C622.519 149.007 632.161 146.968 639.72 150.331C650.381 155.074 654.685 174.008 644.512 179.472C637.877 183.035 626.606 178.078 626.606 178.078C626.606 178.078 627.335 189.421 621.528 191.519C611.312 195.21 597.306 180.821 597.306 180.821C597.306 180.821 593.466 186.188 588.402 186.54C581.075 187.049 574.718 172.533 574.718 172.533C574.718 172.533 549.287 174.001 550.898 163.701C552.353 154.398 568.295 152.082 568.295 152.082C568.295 152.082 563.99 146.352 567.471 140.619C571.073 134.686 579.152 136.722 585.461 139.878C591.216 142.757 593.396 145.796 593.396 145.796C593.396 145.796 593.56 142.027 597.989 138.173C603.105 133.723 610.464 134.97 615.498 139.633Z" fill="white"/>
    </g>
  </g>
</svg>
