<svg width="840" height="634" viewBox="0 0 840 634" fill="none" xmlns="http://www.w3.org/2000/svg">
  <style>

    /*animating the SVGs */
     #rocketship{
       animation: animateX 5s infinite linear;
       transform-origin: bottom;
     }

     #starnight > path{
       animation: starColor 1s step-start infinite;
     }


     @keyframes animateX {
       0%{
         transform: rotateX(0deg);
       }
       50%{
         transform: rotateX(40deg);
       }
       100%{
         transform: rotateX(20deg);
       }
     }


     @keyframes starColor {
       0%,20% {opacity: 100%}
       21%, 50% {opacity: 50%}
       51%, 70% {opacity: 100%}
       71%, 100% {opacity: 70%}
     }

  </style>

  <g id="RocketSVG">
    <rect id="blackBckground" width="840" height="597.333" fill="black"/>

    <g id="rocketship">

      <g id="fire">
      <path id="Rectangle1" d="M369.184 380.333L378.83 380.333C378.83 380.333 383.502 417.457 378.83 428.478C376.448 434.095 371.302 434.472 369.184 428.478C364.059 413.977 369.184 380.333 369.184 380.333Z" fill="#FE8B22"/>
      <path id="Vector1" d="M315.226 384.551C310.074 410.298 320.766 437.5 320.766 437.5C320.766 437.5 340.458 378.073 373.036 377.066C406.741 376.025 427.474 435.466 427.474 435.466C427.474 435.466 438.825 395.08 430.124 373.87C418.562 345.687 418.802 343.583 382.189 343.583C348.649 343.583 323.095 345.223 315.226 384.551Z" fill="#FE8B22"/>
      </g>

      <path id="Polygon1" d="M372.705 205.28C397.189 205.28 429.127 382.03 421.667 385.53C414.207 389.03 332.545 391.655 323.742 385.53C314.94 379.405 348.22 205.28 372.705 205.28Z" fill="url(#paint0_linear)"/>
      <path id="Ellipse1" d="M384.25 306.123C384.25 311.875 382.864 316.96 380.755 320.523C378.612 324.142 376.01 325.79 373.625 325.79C371.24 325.79 368.638 324.142 366.495 320.523C364.386 316.96 363 311.875 363 306.123C363 300.371 364.386 295.286 366.495 291.722C368.638 288.104 371.24 286.456 373.625 286.456C376.01 286.456 378.612 288.104 380.755 291.722C382.864 295.286 384.25 300.371 384.25 306.123Z" fill="url(#paint1_linear)" stroke="white" stroke-width="5"/>

    </g>

    <g id="starnight">
      <path id="Star1" d="M127.484 182.199C127.875 181.57 128.791 181.57 129.183 182.199L130.073 183.631C130.211 183.853 130.429 184.012 130.682 184.074L132.32 184.478C133.039 184.656 133.322 185.527 132.845 186.094L131.758 187.383C131.59 187.583 131.506 187.84 131.525 188.1L131.646 189.782C131.7 190.521 130.959 191.059 130.272 190.78L128.71 190.145C128.468 190.047 128.198 190.047 127.957 190.145L126.394 190.78C125.708 191.059 124.967 190.521 125.02 189.782L125.142 188.1C125.161 187.84 125.077 187.583 124.909 187.383L123.822 186.094C123.344 185.527 123.627 184.656 124.347 184.478L125.984 184.074C126.237 184.012 126.456 183.853 126.594 183.631L127.484 182.199Z" fill="#F7FB4A"/>
      <path id="Star8" d="M528.818 122.116C529.209 121.487 530.125 121.487 530.516 122.116L531.406 123.548C531.544 123.77 531.763 123.928 532.016 123.991L533.653 124.395C534.373 124.573 534.656 125.444 534.178 126.011L533.091 127.3C532.923 127.499 532.84 127.756 532.858 128.017L532.98 129.699C533.033 130.438 532.292 130.976 531.606 130.697L530.043 130.062C529.802 129.963 529.532 129.963 529.29 130.062L527.728 130.697C527.041 130.976 526.3 130.438 526.354 129.699L526.475 128.017C526.494 127.756 526.41 127.499 526.242 127.3L525.156 126.011C524.678 125.444 524.961 124.573 525.68 124.395L527.318 123.991C527.571 123.928 527.789 123.77 527.927 123.548L528.818 122.116Z" fill="#F7FB4A"/>
      <path id="Star2" d="M217.026 67.2825C217.417 66.6532 218.333 66.6532 218.724 67.2825L220.103 69.5005C220.241 69.7219 220.46 69.8808 220.713 69.9433L223.248 70.5695C223.968 70.7471 224.251 71.6182 223.773 72.1848L222.09 74.1817C221.922 74.3811 221.838 74.6382 221.857 74.8982L222.045 77.5032C222.098 78.2423 221.357 78.7807 220.671 78.5015L218.252 77.5177C218.01 77.4195 217.74 77.4195 217.498 77.5177L215.079 78.5015C214.392 78.7807 213.651 78.2423 213.705 77.5032L213.893 74.8982C213.912 74.6382 213.828 74.3811 213.66 74.1817L211.977 72.1848C211.499 71.6182 211.782 70.7471 212.502 70.5695L215.037 69.9433C215.29 69.8808 215.509 69.7219 215.647 69.5005L217.026 67.2825Z" fill="#F7FB4A"/>
      <path id="Star7" d="M484.192 353.116C484.584 352.487 485.5 352.487 485.891 353.116L487.27 355.334C487.408 355.555 487.626 355.714 487.879 355.777L490.415 356.403C491.134 356.58 491.417 357.452 490.94 358.018L489.257 360.015C489.089 360.214 489.005 360.472 489.024 360.732L489.212 363.337C489.265 364.076 488.524 364.614 487.838 364.335L485.418 363.351C485.177 363.253 484.907 363.253 484.665 363.351L482.246 364.335C481.559 364.614 480.818 364.076 480.872 363.337L481.06 360.732C481.078 360.472 480.995 360.214 480.827 360.015L479.144 358.018C478.666 357.452 478.949 356.58 479.668 356.403L482.204 355.777C482.457 355.714 482.676 355.555 482.813 355.334L484.192 353.116Z" fill="#F7FB4A"/>
      <path id="Star12" d="M754.276 81.2825C754.667 80.6532 755.583 80.6532 755.974 81.2825L757.353 83.5005C757.491 83.7219 757.71 83.8808 757.963 83.9433L760.498 84.5695C761.218 84.7471 761.501 85.6182 761.023 86.1848L759.34 88.1817C759.172 88.3811 759.088 88.6382 759.107 88.8982L759.295 91.5032C759.349 92.2423 758.608 92.7807 757.921 92.5015L755.502 91.5177C755.26 91.4195 754.99 91.4195 754.748 91.5177L752.329 92.5015C751.643 92.7807 750.902 92.2423 750.955 91.5032L751.143 88.8982C751.162 88.6382 751.078 88.3811 750.91 88.1817L749.227 86.1848C748.749 85.6182 749.032 84.7471 749.752 84.5695L752.287 83.9433C752.54 83.8808 752.759 83.7219 752.897 83.5005L754.276 81.2825Z" fill="#F7FB4A"/>
      <path id="Star3" d="M742.317 189.199C742.709 188.57 743.625 188.57 744.016 189.199L744.515 190.003C744.653 190.224 744.872 190.383 745.125 190.446L746.043 190.672C746.763 190.85 747.046 191.721 746.568 192.288L745.959 193.011C745.79 193.21 745.707 193.468 745.726 193.728L745.794 194.671C745.847 195.41 745.106 195.949 744.42 195.67L743.543 195.313C743.302 195.215 743.031 195.215 742.79 195.313L741.914 195.67C741.227 195.949 740.486 195.41 740.539 194.671L740.608 193.728C740.626 193.468 740.543 193.21 740.375 193.011L739.765 192.288C739.287 191.721 739.57 190.85 740.29 190.672L741.208 190.446C741.461 190.383 741.68 190.224 741.818 190.003L742.317 189.199Z" fill="#F7FB4A"/>
      <path id="Star4" d="M686.377 234.349C686.778 233.834 687.556 233.834 687.956 234.349L688.892 235.553C689.04 235.743 689.251 235.874 689.488 235.92L690.817 236.183C691.613 236.34 691.9 237.331 691.312 237.889L690.68 238.489C690.458 238.699 690.345 239 690.372 239.304L690.459 240.266C690.524 240.981 689.836 241.529 689.154 241.307L687.476 240.761C687.275 240.695 687.058 240.695 686.857 240.761L685.18 241.307C684.497 241.529 683.81 240.981 683.874 240.266L683.961 239.304C683.988 239 683.875 238.699 683.653 238.489L683.022 237.889C682.433 237.331 682.72 236.34 683.516 236.183L684.846 235.92C685.082 235.874 685.294 235.743 685.442 235.553L686.377 234.349Z" fill="#F7FB4A"/>
      <path id="Star5" d="M590.068 73.6992C590.459 73.0699 591.375 73.0699 591.766 73.6992L592.07 74.1884C592.208 74.4098 592.426 74.5687 592.68 74.6312L593.239 74.7693C593.958 74.947 594.241 75.818 593.764 76.3846L593.392 76.825C593.224 77.0244 593.141 77.2815 593.16 77.5415L593.201 78.116C593.254 78.8551 592.513 79.3935 591.827 79.1143L591.293 78.8974C591.052 78.7992 590.782 78.7992 590.54 78.8974L590.007 79.1143C589.32 79.3935 588.579 78.8551 588.632 78.116L588.674 77.5415C588.693 77.2815 588.609 77.0244 588.441 76.825L588.07 76.3846C587.592 75.818 587.875 74.947 588.595 74.7693L589.154 74.6312C589.407 74.5687 589.626 74.4098 589.763 74.1884L590.068 73.6992Z" fill="#F7FB4A"/>
      <path id="Star10" d="M726.568 380.533C726.959 379.903 727.875 379.903 728.266 380.533L728.57 381.022C728.708 381.243 728.927 381.402 729.18 381.464L729.739 381.603C730.458 381.78 730.741 382.651 730.264 383.218L729.892 383.658C729.724 383.858 729.641 384.115 729.66 384.375L729.701 384.949C729.754 385.688 729.013 386.227 728.327 385.948L727.793 385.731C727.552 385.632 727.282 385.632 727.04 385.731L726.507 385.948C725.82 386.227 725.079 385.688 725.132 384.949L725.174 384.375C725.193 384.115 725.109 383.858 724.941 383.658L724.57 383.218C724.092 382.651 724.375 381.78 725.095 381.603L725.654 381.464C725.907 381.402 726.126 381.243 726.263 381.022L726.568 380.533Z" fill="#F7FB4A"/>
      <path id="Star9" d="M106.484 327.449C106.875 326.82 107.791 326.82 108.183 327.449L108.487 327.938C108.624 328.16 108.843 328.319 109.096 328.381L109.655 328.519C110.375 328.697 110.658 329.568 110.18 330.135L109.809 330.575C109.641 330.774 109.557 331.031 109.576 331.291L109.618 331.866C109.671 332.605 108.93 333.143 108.244 332.864L107.71 332.647C107.468 332.549 107.198 332.549 106.957 332.647L106.423 332.864C105.737 333.143 104.996 332.605 105.049 331.866L105.09 331.291C105.109 331.031 105.026 330.774 104.858 330.575L104.486 330.135C104.009 329.568 104.292 328.697 105.011 328.519L105.57 328.381C105.824 328.319 106.042 328.16 106.18 327.938L106.484 327.449Z" fill="#F7FB4A"/>
      <path id="Star6" d="M78.4841 88.2825C78.8754 87.6532 79.7913 87.6532 80.1826 88.2825L80.6821 89.086C80.8198 89.3074 81.0385 89.4663 81.2916 89.5288L82.2101 89.7556C82.9296 89.9333 83.2126 90.8044 82.735 91.371L82.1252 92.0944C81.9572 92.2937 81.8736 92.5508 81.8924 92.8109L81.9605 93.7545C82.0139 94.4936 81.2729 95.032 80.5864 94.7529L79.71 94.3965C79.4685 94.2983 79.1982 94.2983 78.9566 94.3965L78.0802 94.7529C77.3938 95.032 76.6528 94.4936 76.7061 93.7545L76.7742 92.8109C76.793 92.5508 76.7095 92.2937 76.5414 92.0944L75.9317 91.371C75.4541 90.8044 75.7371 89.9333 76.4565 89.7556L77.375 89.5288C77.6282 89.4663 77.8469 89.3074 77.9845 89.086L78.4841 88.2825Z" fill="#F7FB4A"/>
      <path id="Star11" d="M179.401 257.449C179.792 256.82 180.708 256.82 181.099 257.449L181.599 258.253C181.737 258.474 181.955 258.633 182.208 258.696L183.127 258.922C183.846 259.1 184.129 259.971 183.652 260.538L183.042 261.261C182.874 261.46 182.79 261.718 182.809 261.978L182.877 262.921C182.931 263.66 182.19 264.199 181.503 263.92L180.627 263.563C180.385 263.465 180.115 263.465 179.873 263.563L178.997 263.92C178.311 264.199 177.57 263.66 177.623 262.921L177.691 261.978C177.71 261.718 177.626 261.46 177.458 261.261L176.848 260.538C176.371 259.971 176.654 259.1 177.373 258.922L178.292 258.696C178.545 258.633 178.764 258.474 178.901 258.253L179.401 257.449Z" fill="#F7FB4A"/>
    </g>

    <g id="moon">
    <path id="Ellipse2" d="M420 523.833C420 523.833 128.848 530.385 0 597.333H838.833C764.256 525.574 420 523.833 420 523.833Z" fill="#CCC8C8"/>
    <path id="Ellipse3" d="M162.129 566.859C124.652 573.233 95.7154 586.896 97.498 597.377L200.375 597.077C221.076 590.258 234.445 581.52 233.216 574.295C231.433 563.814 199.607 560.485 162.129 566.859Z" fill="#E8E8E8"/>
    <path id="Ellipse6" d="M233.2 575.785C231.553 566.101 199.836 563.417 162.359 569.791C126.919 575.818 99.0189 587.786 97.4822 597.259L200.259 597.259C220.936 590.689 234.333 582.448 233.2 575.785Z" fill="#DADADA"/>
    <ellipse id="Ellipse4" cx="470.188" cy="547.234" rx="48.7417" ry="12.3261" transform="rotate(1.365 470.188 547.234)" fill="#E8E8E8"/>
    <ellipse id="Ellipse7" cx="470.166" cy="548.157" rx="48.7417" ry="11.403" transform="rotate(1.365 470.166 548.157)" fill="#DADADA"/>
    <path id="Ellipse5" d="M735.088 574.085C666.534 555.976 608.363 551.127 605.16 563.255C603.085 571.108 624.568 584.153 658.583 597.291L806.303 597.291C786.626 589.327 762.063 581.211 735.088 574.085Z" fill="#E8E8E8"/>
    <path id="Ellipse8" d="M726.367 574.812C662.47 557.933 608.166 553.731 605.077 565.427C603.076 573 623.041 585.382 654.712 597.752L792.709 596.574C774.39 589.068 751.509 581.453 726.367 574.812Z" fill="#DADADA"/>
    </g>

  </g>

  <defs>

    <linearGradient id="paint0_linear" x1="372.533" y1="205.28" x2="372.533" y2="389.204" gradientUnits="userSpaceOnUse">
      <stop stop-color="#B3E7CE"/>
      <stop offset="0.369492" stop-color="#40CDCD"/>
      <stop offset="0.369592" stop-color="#94FFFF"/>
      <stop offset="0.369692" stop-color="#393939" stop-opacity="0.635417"/>
      <stop offset="0.369792" stop-color="#A597FF"/>
      <stop offset="1" stop-color="#050025"/>
    </linearGradient>

    <linearGradient id="paint1_linear" x1="373.625" y1="283.956" x2="373.625" y2="328.29" gradientUnits="userSpaceOnUse">
      <stop stop-color="#E7F8F9"/>
      <stop offset="1" stop-color="#03B8C4"/>
    </linearGradient>

  </defs>
</svg>
