<svg width="51" height="97" viewBox="0 0 51 97" fill="none" xmlns="http://www.w3.org/2000/svg">
<path d="M6.22516 63.3111C4.49825 71.8189 8.08224 80.8075 8.08224 80.8075C8.08224 80.8075 14.683 61.1706 25.6033 60.838C36.9012 60.4938 43.8511 80.1354 43.8511 80.1354C43.8511 80.1354 47.656 66.7904 44.7392 59.7819C40.8636 50.4692 40.9444 49.7741 28.6715 49.7741C17.4288 49.7741 8.86293 50.316 6.22516 63.3111Z" stroke="black" stroke-width="10"/>
<path d="M24.5804 5.07017C24.5804 5.07008 24.5829 5.07185 24.588 5.07579C24.583 5.07224 24.5804 5.07027 24.5804 5.07017ZM25.8009 6.6407C26.792 8.22195 27.9167 10.6125 29.1099 13.7555C31.6312 20.397 34.1018 29.4324 36.1944 38.681C38.2802 47.8992 39.9489 57.1422 40.8999 64.1237C41.3157 67.1761 41.583 69.7149 41.6964 71.5951C40.8402 71.6834 39.8478 71.7692 38.7402 71.8499C35.1574 72.1106 30.5813 72.302 25.9672 72.3695C21.3436 72.4372 16.7737 72.3791 13.1834 72.1554C11.8483 72.0723 10.7017 71.9693 9.76787 71.851C9.81889 69.8834 10.0731 67.0813 10.5263 63.6375C11.4485 56.6289 13.1305 47.4371 15.2492 38.2941C17.3743 29.1237 19.8942 20.1965 22.4537 13.6462C23.664 10.5485 24.8022 8.19584 25.8009 6.6407ZM7.68625 71.4609C7.68683 71.4607 7.69974 71.4649 7.72319 71.4745C7.6974 71.4659 7.68568 71.4611 7.68625 71.4609ZM9.82951 73.9185C9.83162 73.9281 9.83253 73.9332 9.83245 73.9334C9.83238 73.9335 9.83132 73.9287 9.82951 73.9185ZM41.7194 74.2502C41.7193 74.2494 41.7205 74.2411 41.7232 74.2258C41.7209 74.2431 41.7195 74.2509 41.7194 74.2502ZM44.5301 71.19C44.5408 71.1868 44.5466 71.1853 44.5469 71.1853C44.5472 71.1853 44.5418 71.1869 44.5301 71.19ZM27.0283 5.09455C27.0336 5.09052 27.0362 5.0887 27.0362 5.08881C27.0362 5.08891 27.0335 5.09092 27.0283 5.09455Z" fill="white" stroke="black" stroke-width="10"/>
</svg>
