<svg width="173" height="102" viewBox="0 0 173 102" fill="none" xmlns="http://www.w3.org/2000/svg">
<path d="M20.9679 33.5226C27.6406 35.7813 17.0313 59.5097 28.2693 62.0577C31.5476 64.4613 105.158 33.5226 105.158 33.5226C105.158 33.5226 136.369 23.3337 149.435 49.4425C162.5 75.5513 85.2094 66.4973 41.8191 65.3541C36.7735 65.2211 23.9857 65.3541 23.9857 65.3541C17.8755 65.8299 8.83993 63.5131 5.60974 58.0448C-0.180911 48.2421 10.7479 30.0632 20.9679 33.5226Z" stroke="black" stroke-width="6"/>
<path d="M58.5933 75.1693C119.889 75.0197 137.621 78.4591 157.549 81.5639C157.549 81.5639 159.048 86.7307 154.59 89.9261C148.287 94.4452 139.309 93.2291 130.591 92.8775C100.492 91.6634 58.5933 75.1693 58.5933 75.1693Z" stroke="black" stroke-width="6"/>
<path d="M40.9692 80.4565C102.265 80.307 119.997 83.7463 139.925 86.8511C139.925 86.8511 141.423 92.0179 136.966 95.2133C130.663 99.7324 121.685 98.5164 112.967 98.1647C82.8684 96.9506 40.9692 80.4565 40.9692 80.4565Z" fill="white" stroke="black" stroke-width="6"/>
<path d="M7.48364 8.63835C12.6153 4.62438 16.8385 3.40145 27.6254 3.70218C49.3231 2.65585 94.0932 8.63835 94.0932 8.63835C94.0932 8.63835 145.713 15.7337 165.596 21.3314C160.183 25.5147 154.84 26.7496 141.93 27.3253L7.48364 8.63835Z" stroke="black" stroke-width="6"/>
</svg>
